PathFileType	3	(X/Y/Z)	squats_2__view1_aligned.trc
DataRate	CameraRate	NumFrames	NumMarkers	Units	OrigDataRate	OrigDataStartFrame	OrigNumFrames
100.0	100.0	6	19	mm	100.0	1501	1550
Frame#	Time	pelvis			neck			head			hip_left			hip_right			knee_left			knee_right			ankle_left			ankle_right			heel_left			heel_right			toe_left			toe_right			shoulder_left			shoulder_right			elbow_left			elbow_right			wrist_left			wrist_right			
		X1	Y1	Z1	X2	Y2	Z2	X3	Y3	Z3	X4	Y4	Z4	X5	Y5	Z5	X6	Y6	Z6	X7	Y7	Z7	X8	Y8	Z8	X9	Y9	Z9	X10	Y10	Z10	X11	Y11	Z11	X12	Y12	Z12	X13	Y13	Z13	X14	Y14	Z14	X15	Y15	Z15	X16	Y16	Z16	X17	Y17	Z17	X18	Y18	Z18	X19	Y19	Z19	
1501	15.00000	54.625339	812.392706	52.978069	51.782615	1359.302828	-148.531053	57.295700	1509.188925	-254.998266	-25.365148	817.624197	57.148550	134.615895	807.161212	48.807522	-161.318071	473.775906	-130.178766	187.634184	467.607332	-181.710276	-132.255605	161.568571	108.550716	178.803209	135.724725	34.520352	-118.838338	125.716959	152.995606	176.063756	103.211879	83.511596	-206.734749	84.113410	-42.230762	182.304974	30.395851	-123.230190	-136.269334	1292.266937	-140.410044	233.826240	1311.873311	-127.806100	-94.164476	1020.362216	-237.164587	227.591192	1053.460144	-258.126938	111.787390	1147.545188	-293.554575	69.025270	1157.964888	-322.876601
1502	15.01000	55.168428	820.469963	52.118649	52.719494	1369.213211	-146.737066	58.403484	1519.483132	-252.917617	-24.638583	825.719700	56.328619	134.975490	815.220224	47.908629	-159.454923	476.693165	-123.438144	185.714024	470.169486	-174.941829	-133.722278	160.791739	110.448366	177.735363	135.360804	36.453318	-120.596736	124.446736	154.532563	175.057375	102.476232	85.110842	-207.991189	84.264757	-41.307438	181.380333	30.505059	-121.960199	-135.636365	1302.156283	-138.675724	235.142595	1321.225567	-126.962753	-93.851872	1030.285640	-237.381798	225.841800	1063.242778	-259.218046	113.271153	1158.355783	-290.704994	62.127075	1169.232509	-318.191649
1503	15.02000	55.711516	828.547219	51.259228	53.656374	1379.123594	-144.943078	59.511268	1529.777340	-250.836969	-23.912017	833.815202	55.508688	135.335084	823.279235	47.009736	-157.591776	479.610424	-116.697522	183.793864	472.731641	-168.173381	-135.188952	160.014906	112.346016	176.667518	134.996883	38.386285	-122.355134	123.176513	156.069519	174.050994	101.740585	86.710088	-209.247629	84.416103	-40.384114	180.455691	30.614267	-120.690209	-135.003396	1312.045630	-136.941404	236.458950	1330.577824	-126.119406	-93.539267	1040.209065	-237.599010	224.092407	1073.025412	-260.309154	114.754916	1169.166378	-287.855412	55.228879	1180.500130	-313.506696
1504	15.03000	56.254605	836.624476	50.399808	54.593254	1389.033976	-143.149090	60.619053	1540.071547	-248.756320	-23.185451	841.910705	54.688756	135.694678	831.338246	46.110843	-155.728629	482.527683	-109.956900	181.873704	475.293796	-161.404934	-136.655626	159.238074	114.243666	175.599672	134.632961	40.319251	-124.113532	121.906291	157.606475	173.044613	101.004937	88.309333	-210.504068	84.567450	-39.460790	179.531049	30.723475	-119.420218	-134.370427	1321.934976	-135.207084	237.775305	1339.930080	-125.276059	-93.226663	1050.132489	-237.816221	222.343014	1082.808046	-261.400262	116.238680	1179.976972	-285.005831	48.330684	1191.767751	-308.821744
1505	15.04000	56.797693	844.701733	49.540387	55.530134	1398.944359	-141.355102	61.726837	1550.365755	-246.675672	-22.458885	850.006208	53.868825	136.054272	839.397257	45.211950	-153.865482	485.444942	-103.216278	179.953543	477.855950	-154.636486	-138.122299	158.461241	116.141315	174.531827	134.269040	42.252218	-125.871930	120.636068	159.143431	172.038232	100.269290	89.908579	-211.760508	84.718796	-38.537466	178.606408	30.832684	-118.150228	-133.737458	1331.824322	-133.472763	239.091660	1349.282336	-124.432712	-92.914059	1060.055913	-238.033432	220.593621	1092.590680	-262.491370	117.722443	1190.787567	-282.156249	41.432488	1203.035372	-304.136791
1506	15.05000	58.257428	850.741223	47.659942	58.185860	1405.688424	-141.191713	64.590390	1557.336940	-246.305993	-20.810865	856.071737	51.920646	137.325720	845.410708	43.399239	-150.132232	487.984410	-98.209889	179.756944	480.089047	-148.847568	-137.473226	157.965314	116.058879	174.677091	134.049027	42.986854	-125.554486	119.738148	158.717635	172.148452	99.677191	90.277278	-210.389416	85.003469	-39.657984	178.868221	31.227091	-118.167481	-131.349624	1339.134126	-133.520749	241.941913	1355.435915	-125.107746	-91.376584	1067.239780	-239.328621	220.158178	1099.280348	-264.613822	120.768430	1198.179188	-281.149534	36.242461	1212.334514	-301.250720
